#tb 0: 1/25
#media_type 0: video
#codec_id 0: rawvideo
#dimensions 0: 2560x1600
#sar 0: 0/1
0,          0,          0,        1,  6144000, 0x3681421d
0,          1,          1,        1,  6144000, 0xecf3f343
0,          2,          2,        1,  6144000, 0x53742db2
0,          3,          3,        1,  6144000, 0x9b780429
0,          4,          4,        1,  6144000, 0x57abb17e
